HIERARCHY
ROOT joint_Root
{
	OFFSET 0.0 0.0 0.0
	CHANNELS 6 Xposition Yposition Zposition Zrotation Xrotation Yrotation 
	JOINT Hips
	{
		OFFSET -0.726466 93.3139 -2.00062
		CHANNELS 6 Xposition Yposition Zposition Zrotation Xrotation Yrotation 
		JOINT Spine
		{
			OFFSET 15.7357 0.0 0.0
			CHANNELS 6 Xposition Yposition Zposition Zrotation Xrotation Yrotation 
			JOINT Chest
			{
				OFFSET 8.98455 -0.406207 0.0
				CHANNELS 6 Xposition Yposition Zposition Zrotation Xrotation Yrotation 
				JOINT Neck
				{
					OFFSET 16.3773 0.0 0.0
					CHANNELS 6 Xposition Yposition Zposition Zrotation Xrotation Yrotation 
					JOINT Head
					{
						OFFSET 6.45672 0.0 0.0
						CHANNELS 6 Xposition Yposition Zposition Zrotation Xrotation Yrotation 
						End Site
						{
							OFFSET 0.0 0.0 0.0
						}
					}
				}
				JOINT Shoulder_L
				{
					OFFSET 12.9942 -0.242716 4.98039
					CHANNELS 6 Xposition Yposition Zposition Zrotation Xrotation Yrotation 
					JOINT UpperArm_L
					{
						OFFSET 5.34809 0.0 0.0
						CHANNELS 6 Xposition Yposition Zposition Zrotation Xrotation Yrotation 
						JOINT LowerArm_L
						{
							OFFSET 24.3286 1.87007e-05 0.0
							CHANNELS 6 Xposition Yposition Zposition Zrotation Xrotation Yrotation 
							JOINT Hand_L
							{
								OFFSET 22.2916 0.0 0.0
								CHANNELS 6 Xposition Yposition Zposition Zrotation Xrotation Yrotation 
								End Site
								{
									OFFSET 0.0 0.0 0.0
								}
							}
						}
					}
				}
				JOINT Shoulder_R
				{
					OFFSET 12.9945 -0.242716 -4.98039
					CHANNELS 6 Xposition Yposition Zposition Zrotation Xrotation Yrotation 
					JOINT UpperArm_R
					{
						OFFSET -5.34813 0.0 0.0
						CHANNELS 6 Xposition Yposition Zposition Zrotation Xrotation Yrotation 
						JOINT LowerArm_R
						{
							OFFSET -24.3289 0.000322201 0.0
							CHANNELS 6 Xposition Yposition Zposition Zrotation Xrotation Yrotation 
							JOINT Hand_R
							{
								OFFSET -22.2915 -0.000108084 0.0
								CHANNELS 6 Xposition Yposition Zposition Zrotation Xrotation Yrotation 
								End Site
								{
									OFFSET 0.0 0.0 0.0
								}
							}
						}
					}
				}
			}
		}
		JOINT UpperLeg_L
		{
			OFFSET -2.19248 -6.46944 0.0
			CHANNELS 6 Xposition Yposition Zposition Zrotation Xrotation Yrotation 
			JOINT LowerLeg_L
			{
				OFFSET 39.0811 0.0 -1.23785e-05
				CHANNELS 6 Xposition Yposition Zposition Zrotation Xrotation Yrotation 
				JOINT Foot_L
				{
					OFFSET 40.9854 0.0 -1.26872e-05
					CHANNELS 6 Xposition Yposition Zposition Zrotation Xrotation Yrotation 
					JOINT Toes_L
					{
						OFFSET 11.7543 0.0 0.0
						CHANNELS 6 Xposition Yposition Zposition Zrotation Xrotation Yrotation 
						End Site
						{
							OFFSET 0.0 0.0 0.0
						}
					}
				}
			}
		}
		JOINT UpperLeg_R
		{
			OFFSET -2.19251 6.46944 0.0
			CHANNELS 6 Xposition Yposition Zposition Zrotation Xrotation Yrotation 
			JOINT LowerLeg_R
			{
				OFFSET -39.0811 -0.00228153 -0.0401928
				CHANNELS 6 Xposition Yposition Zposition Zrotation Xrotation Yrotation 
				JOINT Foot_R
				{
					OFFSET -40.9854 0.0 0.0
					CHANNELS 6 Xposition Yposition Zposition Zrotation Xrotation Yrotation 
					JOINT Toes_R
					{
						OFFSET -11.7543 0.0 0.0
						CHANNELS 6 Xposition Yposition Zposition Zrotation Xrotation Yrotation 
						End Site
						{
							OFFSET 0.0 0.0 0.0
						}
					}
				}
			}
		}
	}
}
MOTION
Frames:	6
Frame Time:	0.0333333
0.000000 0.000000 0.000000 0.000000 0.000000 -0.000000 -171.284000 89.837400 192.007000 103.848000 82.124900 -15.682900 15.735700 0.000005 -0.000001 100.391000 82.913400 -100.223000 8.984550 -0.406207 -0.000000 6.175680 2.546900 0.198081 16.377300 -0.000001 -0.000001 -0.338943 -1.217210 0.834793 6.456720 -0.000001 -0.000000 -0.050826 -2.858860 0.206969 12.994200 -0.242716 4.980390 -89.382800 -1.787500 -70.946100 5.348090 -0.000007 -0.000001 -76.582200 36.308200 -6.661290 24.328600 0.000019 0.000005 2.129850 3.684360 -30.071500 22.291600 -0.000001 0.000005 3.867730 5.529290 -7.761480 12.994500 -0.242716 -4.980390 88.601100 5.175170 -74.851700 -5.348130 -0.000001 -0.000004 -57.390500 49.245600 -37.433800 -24.328900 0.000322 -0.000009 2.820110 4.758610 -30.707200 -22.291500 -0.000108 -0.000004 12.605300 5.411530 -3.314890 -2.192480 -6.469440 -0.000000 -178.413000 0.068235 -29.399600 39.081100 -0.000007 -0.000012 -0.004973 0.006947 35.606000 40.985400 -0.000006 -0.000013 0.378754 -4.627520 -57.862000 11.754300 -0.000000 0.000003 -0.002922 -0.039723 -18.192200 -2.192510 6.469440 -0.000001 179.642000 10.770900 -177.021000 -39.081100 -0.002282 -0.040193 -0.003033 0.014909 23.065600 -40.985400 0.000008 0.000006 11.139700 8.893480 -76.133700 -11.754300 -0.000006 -0.000006 -0.009270 -0.098096 -20.569000
0.000000 0.000000 0.000000 0.000000 0.000000 -0.000000 -168.483000 89.490400 192.126000 99.827400 80.578800 -12.177600 15.735700 0.000005 -0.000001 103.817000 83.000600 -103.655000 8.984550 -0.406207 -0.000000 5.830590 3.332010 0.154858 16.377300 -0.000001 -0.000001 -0.774993 -0.718685 0.763174 6.456720 -0.000001 -0.000000 -0.291706 -2.529890 -0.044618 12.994200 -0.242716 4.980390 -89.339700 -1.885760 -70.698900 5.348090 -0.000007 -0.000001 -78.600600 32.078500 -4.053420 24.328600 0.000019 0.000005 2.483950 6.020830 -22.492400 22.291600 -0.000001 0.000005 3.395130 5.483290 -5.876350 12.994500 -0.242716 -4.980390 88.752600 4.812500 -75.451100 -5.348130 -0.000001 -0.000004 -51.248100 50.981100 -45.278100 -24.328900 0.000322 -0.000009 3.564020 4.898250 -36.114300 -22.291500 -0.000108 -0.000004 13.161100 5.435100 -4.113590 -2.192480 -6.469440 -0.000000 -179.879000 -2.257430 -30.339400 39.081100 -0.000007 -0.000012 -0.004504 0.009267 25.924500 40.985400 -0.000006 -0.000013 -1.051110 -1.469410 -54.014400 11.754300 -0.000000 0.000003 -0.002735 -0.037572 -18.104700 -2.192510 6.469440 -0.000001 178.867000 11.158500 -175.508000 -39.081100 -0.002282 -0.040193 -0.001746 0.012117 22.673800 -40.985400 0.000008 0.000006 11.338900 10.946400 -75.819900 -11.754300 -0.000006 -0.000006 -0.892987 -1.028120 -22.226300
0.000000 0.000000 0.000000 0.000000 0.000000 -0.000000 -165.157000 88.987100 192.262000 96.567800 79.319200 -8.928990 15.735700 0.000005 -0.000001 106.881000 82.932800 -106.727000 8.984550 -0.406207 -0.000000 5.765250 4.091530 0.102705 16.377300 -0.000001 -0.000001 -1.084520 -0.444407 0.727956 6.456720 -0.000001 -0.000000 -0.618308 -2.279540 -0.091028 12.994200 -0.242716 4.980390 -89.178900 -2.331540 -70.593700 5.348090 -0.000007 -0.000001 -79.912300 26.272400 -2.177740 24.328600 0.000019 0.000005 2.865180 10.394600 -15.522100 22.291600 -0.000001 0.000005 4.204730 5.416190 -3.484470 12.994500 -0.242716 -4.980390 88.925300 4.248520 -75.790200 -5.348130 -0.000001 -0.000004 -46.532700 51.298500 -51.441700 -24.328900 0.000322 -0.000009 4.097620 4.758780 -40.819300 -22.291500 -0.000108 -0.000004 13.562800 5.448680 -4.592270 -2.192480 -6.469440 -0.000000 177.057000 -5.398310 -31.465200 39.081100 -0.000007 -0.000012 -0.014494 0.039522 20.139700 40.985400 -0.000006 -0.000013 1.879130 0.335638 -52.978600 11.754300 -0.000000 0.000003 -0.002331 -0.032792 -17.910200 -2.192510 6.469440 -0.000001 177.971000 11.224700 -173.648000 -39.081100 -0.002282 -0.040193 0.000479 0.006654 23.092500 -40.985400 0.000008 0.000006 11.289900 12.898500 -74.651700 -11.754300 -0.000006 -0.000006 -2.057350 -2.137410 -25.419000
0.000000 0.000000 0.000000 0.000000 0.000000 -0.000000 -161.206000 88.388900 192.350000 94.872300 78.288600 -7.160160 15.735700 0.000005 -0.000001 109.774000 82.918500 -109.723000 8.984550 -0.406207 -0.000000 5.575010 4.779100 -0.130994 16.377300 -0.000001 -0.000001 -1.170370 -0.259385 0.680076 6.456720 -0.000001 -0.000000 -0.779940 -2.202020 0.120132 12.994200 -0.242716 4.980390 -89.001900 -2.799970 -70.370800 5.348090 -0.000007 -0.000001 -80.114000 20.881300 -0.933328 24.328600 0.000019 0.000005 2.344460 13.934700 -9.653960 22.291600 -0.000001 0.000005 6.268140 5.319310 -0.506256 12.994500 -0.242716 -4.980390 89.019400 3.919370 -75.941000 -5.348130 -0.000001 -0.000004 -43.505500 50.858800 -55.145500 -24.328900 0.000322 -0.000009 4.118890 4.174340 -44.700700 -22.291500 -0.000108 -0.000004 13.648000 5.453350 -4.759910 -2.192480 -6.469440 -0.000000 173.450000 -8.597050 -32.813900 39.081100 -0.000007 -0.000012 -0.062758 0.181827 19.042200 40.985400 -0.000006 -0.000013 3.531820 -0.160642 -54.692800 11.754300 -0.000000 0.000003 -0.002977 -0.040346 -18.217600 -2.192510 6.469440 -0.000001 176.861000 10.737400 -171.966000 -39.081100 -0.002282 -0.040193 0.006791 -0.007556 24.718900 -40.985400 0.000008 0.000006 11.387600 14.182200 -73.628000 -11.754300 -0.000006 -0.000006 -0.572599 -0.708537 -27.558000
0.000000 0.000000 0.000000 0.000000 0.000000 -0.000000 -156.700000 87.875100 192.450000 96.266800 77.510200 -8.453610 15.735700 0.000005 -0.000001 112.065000 83.036900 -112.319000 8.984550 -0.406207 -0.000000 5.168760 5.226270 -0.743775 16.377300 -0.000001 -0.000001 -0.968785 -0.033363 0.702559 6.456720 -0.000001 -0.000000 -0.798809 -2.159180 0.185361 12.994200 -0.242716 4.980390 -88.980000 -2.791380 -69.917100 5.348090 -0.000007 -0.000001 -79.118500 16.694700 0.060221 24.328600 0.000019 0.000005 1.455490 15.728400 -5.356790 22.291600 -0.000001 0.000005 8.922920 5.234070 1.835710 12.994500 -0.242716 -4.980390 88.959500 4.164950 -75.960400 -5.348130 -0.000001 -0.000004 -42.243700 50.135800 -55.930200 -24.328900 0.000322 -0.000009 4.176250 3.803490 -47.754500 -22.291500 -0.000108 -0.000004 13.604200 5.451420 -4.690430 -2.192480 -6.469440 -0.000000 171.500000 -8.668370 -34.074500 39.081100 -0.000007 -0.000012 0.098817 -0.239004 22.462900 40.985400 -0.000006 -0.000013 7.444320 -0.675733 -51.715100 11.754300 -0.000000 0.000003 -0.003546 -0.046636 -18.473600 -2.192510 6.469440 -0.000001 175.013000 10.224500 -170.743000 -39.081100 -0.002282 -0.040193 0.015943 -0.024247 27.525700 -40.985400 0.000008 0.000006 11.259700 15.793800 -71.761400 -11.754300 -0.000006 -0.000006 -0.078412 -0.387479 -32.653100
0.000000 0.000000 0.000000 0.000000 0.000000 -0.000000 -151.661000 87.465200 192.798000 98.078200 76.515300 -9.879370 15.735700 0.000005 -0.000001 113.987000 83.193900 -114.623000 8.984550 -0.406207 -0.000000 4.719440 5.540530 -1.498710 16.377300 -0.000001 -0.000001 -0.657381 0.436206 0.898040 6.456720 -0.000001 -0.000000 -0.544010 -1.918880 0.010162 12.994200 -0.242716 4.980390 -89.118100 -2.342730 -69.364700 5.348090 -0.000007 -0.000001 -77.346700 12.511200 1.701840 24.328600 0.000019 0.000005 1.247020 17.241500 -4.200000 22.291600 -0.000001 0.000005 10.261100 5.175280 3.331080 12.994500 -0.242716 -4.980390 88.770600 4.928840 -75.975700 -5.348130 -0.000001 -0.000004 -42.333000 49.683400 -54.395100 -24.328900 0.000322 -0.000009 4.124270 3.535550 -49.469900 -22.291500 -0.000108 -0.000004 13.833700 5.457070 -4.893860 -2.192480 -6.469440 -0.000000 173.234000 -3.355610 -34.438400 39.081100 -0.000007 -0.000012 0.079517 -0.145983 28.577000 40.985400 -0.000006 -0.000013 5.905640 -4.697400 -46.798900 11.754300 -0.000000 0.000003 -0.002797 -0.038293 -18.134000 -2.192510 6.469440 -0.000001 172.825000 9.691400 -170.172000 -39.081100 -0.002282 -0.040193 0.031176 -0.045133 31.702600 -40.985400 0.000008 0.000006 10.948600 18.328600 -67.299100 -11.754300 -0.000006 -0.000006 -0.162279 -0.578424 -41.115900
